<svg xmlns="http://www.w3.org/2000/svg" width="1536" height="1024" viewBox="0 0 1536 1024">
  <defs>
    <linearGradient id="brushGrad" x1="0%" y1="85%" x2="85%" y2="10%">
      <stop offset="0%" stop-color="#5fa0ff"/>
      <stop offset="45%" stop-color="#334dff"/>
      <stop offset="100%" stop-color="#59a8ff"/>
    </linearGradient>
    <linearGradient id="strokeGrad" x1="5%" y1="95%" x2="95%" y2="70%">
      <stop offset="0%" stop-color="#5fa0ff"/>
      <stop offset="100%" stop-color="#5178ff"/>
    </linearGradient>
  </defs>
  <rect width="100%" height="100%" fill="#04060d"/>
  <path d="M 0 665 L 3 666 L 4 656 L 7 665 L 21 666 L 37 686 L 67 710 L 92 725 L 130 742 L 201 764 L 266 775 L 358 781 L 377 779 L 320 768 L 379 771 L 378 769 L 300 759 L 323 757 L 368 759 L 344 755 L 365 754 L 376 757 L 379 754 L 400 752 L 365 748 L 354 744 L 366 743 L 365 741 L 335 739 L 293 727 L 238 717 L 203 704 L 189 693 L 209 696 L 278 719 L 366 732 L 587 735 L 649 731 L 602 726 L 439 719 L 283 704 L 210 692 L 196 686 L 175 670 L 188 686 L 180 687 L 167 681 L 165 675 L 141 664 L 136 657 L 134 663 L 128 658 L 111 629 L 114 627 L 113 605 L 119 602 L 113 592 L 123 583 L 126 598 L 135 570 L 139 567 L 142 556 L 148 556 L 147 551 L 158 532 L 177 515 L 207 478 L 209 480 L 182 518 L 181 527 L 223 478 L 225 479 L 219 489 L 258 444 L 257 455 L 253 461 L 272 443 L 280 426 L 307 392 L 311 392 L 323 382 L 325 389 L 334 389 L 359 367 L 370 370 L 381 363 L 385 366 L 384 371 L 388 370 L 391 373 L 384 396 L 383 416 L 390 431 L 389 444 L 395 454 L 394 467 L 399 467 L 405 460 L 419 484 L 422 486 L 425 481 L 434 494 L 434 499 L 449 508 L 466 502 L 526 432 L 588 368 L 604 346 L 608 347 L 618 338 L 618 348 L 621 350 L 626 368 L 633 369 L 638 363 L 639 371 L 661 363 L 696 363 L 685 381 L 687 385 L 682 392 L 689 391 L 697 402 L 703 400 L 705 404 L 710 404 L 704 415 L 707 419 L 715 413 L 734 431 L 742 434 L 756 432 L 826 400 L 1118 220 L 1213 166 L 1215 162 L 1261 133 L 1219 151 L 1185 172 L 1137 193 L 1135 192 L 1140 189 L 1140 185 L 1159 176 L 1161 172 L 1247 131 L 1175 158 L 1112 191 L 1100 194 L 1076 210 L 1075 201 L 1103 183 L 1093 188 L 1089 186 L 1053 209 L 1064 194 L 1095 174 L 1079 180 L 1083 175 L 1149 138 L 1152 133 L 1173 123 L 1175 119 L 1169 120 L 1112 156 L 1099 161 L 1105 154 L 1134 136 L 1128 135 L 1142 127 L 1141 124 L 1153 116 L 1124 129 L 1123 126 L 1130 120 L 1111 129 L 1080 136 L 1047 134 L 1019 128 L 1010 122 L 1005 123 L 983 112 L 981 107 L 969 98 L 948 98 L 940 91 L 923 85 L 918 89 L 915 86 L 892 85 L 884 94 L 874 98 L 855 116 L 850 117 L 821 170 L 803 191 L 798 192 L 793 190 L 791 184 L 789 187 L 771 162 L 736 89 L 735 92 L 728 84 L 712 78 L 669 77 L 672 72 L 664 72 L 658 76 L 661 71 L 658 69 L 632 88 L 563 158 L 567 157 L 518 203 L 517 198 L 509 201 L 501 175 L 501 186 L 498 185 L 467 96 L 436 45 L 412 32 L 429 45 L 427 46 L 406 31 L 388 25 L 367 23 L 341 28 L 304 47 L 274 67 L 209 125 L 199 139 L 217 127 L 214 136 L 222 128 L 226 128 L 219 138 L 221 141 L 209 153 L 211 156 L 145 237 L 143 226 L 133 233 L 125 251 L 113 267 L 114 272 L 106 287 L 71 337 L 28 380 L 0 400 L 0 411 L 21 394 L 23 396 L 13 406 L 45 394 L 31 411 L 21 417 L 26 419 L 0 442 L 0 453 L 2 456 L 6 455 L 0 465 L 12 448 L 18 448 L 15 454 L 19 454 L 18 468 L 33 453 L 23 466 L 26 469 L 18 483 L 17 493 L 0 526 Z" fill="url(#brushGrad)"/>
  <path d="M 1117 680 L 1046 691 L 972 699 L 965 703 L 959 702 L 921 707 L 908 707 L 890 711 L 876 711 L 866 714 L 836 716 L 822 720 L 801 721 L 797 723 L 777 723 L 773 726 L 745 727 L 742 729 L 734 729 L 723 732 L 713 741 L 735 736 L 770 737 L 790 733 L 809 733 L 845 728 L 852 729 L 865 726 L 876 726 L 952 716 L 993 708 L 1006 708 L 1064 697 L 1100 688 L 1114 683 Z" fill="url(#strokeGrad)"/>
</svg>